<svg width="8" height="8" viewBox="0 0 8 8" fill="none" xmlns="http://www.w3.org/2000/svg">
<g id="Person icon">
<path id="icon" d="M4 4.00012C3.45 4.00012 2.97917 3.80429 2.5875 3.41262C2.19583 3.02096 2 2.55012 2 2.00012C2 1.45012 2.19583 0.979289 2.5875 0.587622C2.97917 0.195955 3.45 0.00012207 4 0.00012207C4.55 0.00012207 5.02083 0.195955 5.4125 0.587622C5.80417 0.979289 6 1.45012 6 2.00012C6 2.55012 5.80417 3.02096 5.4125 3.41262C5.02083 3.80429 4.55 4.00012 4 4.00012ZM0 8.00012V6.60012C0 6.31679 0.0729167 6.05637 0.21875 5.81887C0.364583 5.58137 0.558333 5.40012 0.8 5.27512C1.31667 5.01679 1.84167 4.82304 2.375 4.69387C2.90833 4.56471 3.45 4.50012 4 4.50012C4.55 4.50012 5.09167 4.56471 5.625 4.69387C6.15833 4.82304 6.68333 5.01679 7.2 5.27512C7.44167 5.40012 7.63542 5.58137 7.78125 5.81887C7.92708 6.05637 8 6.31679 8 6.60012V8.00012H0ZM1 7.00012H7V6.60012C7 6.50846 6.97708 6.42512 6.93125 6.35012C6.88542 6.27512 6.825 6.21679 6.75 6.17512C6.3 5.95012 5.84583 5.78137 5.3875 5.66887C4.92917 5.55637 4.46667 5.50012 4 5.50012C3.53333 5.50012 3.07083 5.55637 2.6125 5.66887C2.15417 5.78137 1.7 5.95012 1.25 6.17512C1.175 6.21679 1.11458 6.27512 1.06875 6.35012C1.02292 6.42512 1 6.50846 1 6.60012V7.00012ZM4 3.00012C4.275 3.00012 4.51042 2.90221 4.70625 2.70637C4.90208 2.51054 5 2.27512 5 2.00012C5 1.72512 4.90208 1.48971 4.70625 1.29387C4.51042 1.09804 4.275 1.00012 4 1.00012C3.725 1.00012 3.48958 1.09804 3.29375 1.29387C3.09792 1.48971 3 1.72512 3 2.00012C3 2.27512 3.09792 2.51054 3.29375 2.70637C3.48958 2.90221 3.725 3.00012 4 3.00012Z" fill="white"/>
</g>
</svg>
