<svg width="8" height="8" viewBox="0 0 8 8" fill="none" xmlns="http://www.w3.org/2000/svg">
<g id="Calendar icon">
<path id="icon" d="M2.71425 5.68756C2.41425 5.68756 2.16068 5.59694 1.95354 5.41569C1.74639 5.23444 1.64282 5.01256 1.64282 4.75006C1.64282 4.48756 1.74639 4.26569 1.95354 4.08444C2.16068 3.90319 2.41425 3.81256 2.71425 3.81256C3.01425 3.81256 3.26782 3.90319 3.47497 4.08444C3.68211 4.26569 3.78568 4.48756 3.78568 4.75006C3.78568 5.01256 3.68211 5.23444 3.47497 5.41569C3.26782 5.59694 3.01425 5.68756 2.71425 5.68756ZM0.999965 7.75006C0.764251 7.75006 0.562465 7.67662 0.394608 7.52975C0.226751 7.38287 0.142822 7.20631 0.142822 7.00006V1.75006C0.142822 1.54381 0.226751 1.36725 0.394608 1.22037C0.562465 1.0735 0.764251 1.00006 0.999965 1.00006H1.42854V0.250061H2.28568V1.00006H5.71425V0.250061H6.57139V1.00006H6.99997C7.23568 1.00006 7.43747 1.0735 7.60532 1.22037C7.77318 1.36725 7.85711 1.54381 7.85711 1.75006V7.00006C7.85711 7.20631 7.77318 7.38287 7.60532 7.52975C7.43747 7.67662 7.23568 7.75006 6.99997 7.75006H0.999965ZM0.999965 7.00006H6.99997V3.25006H0.999965V7.00006Z" fill="white"/>
</g>
</svg>
