<svg width="8" height="8" viewBox="0 0 8 8" fill="none" xmlns="http://www.w3.org/2000/svg">
<g id="Clock icon" clip-path="url(#clip0_345_1150)">
<path id="Vector" d="M5.32 5.88018L5.88 5.32018L4.4 3.84018V2.00018H3.6V4.16018L5.32 5.88018ZM4 8.00018C3.44667 8.00018 2.92667 7.89518 2.44 7.68518C1.95333 7.47518 1.53 7.19018 1.17 6.83018C0.81 6.47018 0.525 6.04685 0.315 5.56018C0.105 5.07352 0 4.55352 0 4.00018C0 3.44685 0.105 2.92685 0.315 2.44018C0.525 1.95352 0.81 1.53018 1.17 1.17018C1.53 0.810183 1.95333 0.525183 2.44 0.315183C2.92667 0.105183 3.44667 0.000183105 4 0.000183105C4.55333 0.000183105 5.07333 0.105183 5.56 0.315183C6.04667 0.525183 6.47 0.810183 6.83 1.17018C7.19 1.53018 7.475 1.95352 7.685 2.44018C7.895 2.92685 8 3.44685 8 4.00018C8 4.55352 7.895 5.07352 7.685 5.56018C7.475 6.04685 7.19 6.47018 6.83 6.83018C6.47 7.19018 6.04667 7.47518 5.56 7.68518C5.07333 7.89518 4.55333 8.00018 4 8.00018ZM4 7.20018C4.88667 7.20018 5.64167 6.88852 6.265 6.26518C6.88833 5.64185 7.2 4.88685 7.2 4.00018C7.2 3.11352 6.88833 2.35852 6.265 1.73518C5.64167 1.11185 4.88667 0.800183 4 0.800183C3.11333 0.800183 2.35833 1.11185 1.735 1.73518C1.11167 2.35852 0.8 3.11352 0.8 4.00018C0.8 4.88685 1.11167 5.64185 1.735 6.26518C2.35833 6.88852 3.11333 7.20018 4 7.20018Z" fill="#E8EAED"/>
</g>
<defs>
<clipPath id="clip0_345_1150">
<rect width="8" height="8" fill="white"/>
</clipPath>
</defs>
</svg>
