<?xml version="1.0" encoding="UTF-8"?>
<!-- Generator: visioncortex VTracer -->
<svg id="svg" version="1.1" xmlns="http://www.w3.org/2000/svg" style="display: block;" viewBox="0 0 512 512"><path d="M0 0 C5.78817308 5.63975839 7.1563347 10.49348209 7.95703125 18.25 C8.07279007 19.24249756 8.18854889 20.23499512 8.30781555 21.25756836 C8.56137831 23.44776566 8.80755904 25.6388267 9.04742432 27.83056641 C9.45555492 31.5390565 9.8881259 35.24409029 10.32568359 38.94921875 C11.12005502 45.7024434 11.89210487 52.45794795 12.65454102 59.21484375 C13.05058297 62.72382505 13.45211493 66.2321562 13.85487652 69.7403717 C14.16897019 72.48366412 14.47950307 75.2273511 14.78904152 77.97116089 C15.00604254 79.88737651 15.22656873 81.80319188 15.44718933 83.71899414 C16.0717048 89.30306729 16.6257655 94.75488784 16.4375 100.375 C17.81856934 100.51748169 17.81856934 100.51748169 19.22753906 100.6628418 C29.99460117 101.77697221 40.75900137 102.915048 51.52233887 104.0645752 C54.49027447 104.38061976 57.45849302 104.69389942 60.42675781 105.00683594 C65.41958576 105.53439665 70.41100869 106.07391693 75.4017334 106.6210022 C77.33208051 106.83089557 79.26282893 107.03713256 81.19396973 107.23959351 C83.91956007 107.5260986 86.64338076 107.82597159 89.3671875 108.12890625 C90.5681456 108.25070755 90.5681456 108.25070755 91.79336548 108.37496948 C98.23875694 109.11467187 104.02865066 110.50145051 109.25 114.5625 C113.65827262 120.23027909 114.88899665 126.61326542 115.60424805 133.5793457 C115.69246826 134.35598068 115.78068848 135.13261566 115.87158203 135.93278503 C116.15740044 138.47112359 116.42848563 141.01079334 116.69921875 143.55078125 C116.89585236 145.32587581 117.09336081 147.10087366 117.29170227 148.8757782 C117.80896398 153.52766966 118.31347568 158.18086023 118.81555176 162.83441162 C119.22837704 166.64062817 119.65023786 170.44581769 120.07257366 174.25098896 C120.57602765 178.7881005 121.07578978 183.32561517 121.57421875 187.86328125 C121.71688455 189.16185279 121.71688455 189.16185279 121.86243248 190.4866581 C122.12989527 192.9301062 122.39489814 195.37380661 122.65893555 197.81762695 C122.73837906 198.54233185 122.81782257 199.26703674 122.89967346 200.01370239 C123.20060407 202.81973492 123.4375 205.55018424 123.4375 208.375 C124.97229004 208.6699939 124.97229004 208.6699939 126.53808594 208.97094727 C141.89107157 211.96341782 157.16818995 215.30387507 172.43549347 218.70252037 C176.48780294 219.60453463 180.54126864 220.50031948 184.59814453 221.3815918 C188.58596557 222.24796317 192.57018237 223.12938295 196.55233002 224.02145576 C198.05173701 224.35475995 199.55230312 224.68289807 201.05405426 225.005476 C218.90530559 228.84937592 218.90530559 228.84937592 224.4375 235.9375 C227.53953217 246.60073557 224.46738986 257.86768429 222.26171875 268.453125 C221.93176966 270.07573837 221.60266871 271.69852442 221.27436829 273.32147217 C220.58805871 276.70153009 219.89393303 280.07985095 219.19360352 283.45703125 C218.30015426 287.767006 217.42296996 292.08009031 216.55116558 296.39448929 C215.87431541 299.73799998 215.19068717 303.08009565 214.50486183 306.42177582 C214.17910935 308.01132303 213.85500014 309.60120798 213.53262901 311.1914444 C209.08812084 333.04620298 209.08812084 333.04620298 202.61102295 338.05664062 C198.27411081 340.6872127 193.54133696 342.10893644 188.7265625 343.625 C187.56853119 344.00503174 186.41049988 344.38506348 185.21737671 344.77661133 C181.50399014 345.99180339 177.78377536 347.18421129 174.0625 348.375 C170.55800092 349.51163323 167.05504144 350.65289304 163.55250835 351.79556847 C161.05995582 352.60844905 158.56632823 353.41772882 156.07191944 354.22492409 C148.7778488 356.59470255 141.50904759 359.02305339 134.26579285 361.54403687 C113.24347529 368.85177453 92.13352119 375.58369688 70.77682036 381.84004676 C58.9075217 385.32880223 47.10143322 389.02657704 35.29194927 392.71174049 C25.81182747 395.66389959 16.32008299 398.54389465 6.77075195 401.26464844 C-47.01649974 416.64150611 -83.97691454 436.15865122 -119.92768669 479.89554977 C-128.64965969 490.36712094 -139.17691322 498.02974935 -151.8125 503.3125 C-152.47306396 503.58916504 -153.13362793 503.86583008 -153.81420898 504.15087891 C-176.87660686 513.57976646 -204.91673353 513.46600682 -227.93359375 503.97875977 C-240.51868055 498.46126551 -250.93365263 491.13185273 -260.5625 481.375 C-261.30113281 480.63507813 -262.03976562 479.89515625 -262.80078125 479.1328125 C-282.6303532 458.10961583 -287.34017495 432.1936936 -286.69433594 404.45849609 C-285.82894696 384.21800956 -276.07352779 364.20367846 -262.5625 349.375 C-259.83606722 347.07167012 -257.01466639 344.97478229 -254.13215446 342.87067604 C-214.69987104 313.80707442 -196.63433034 276.92682507 -181.61328125 231.58984375 C-181.38391253 230.89847496 -181.1545438 230.20710616 -180.91822451 229.4947868 C-174.99520648 211.61127776 -169.41193895 193.6271849 -163.93874633 175.60170233 C-160.76980702 165.17559952 -157.51476714 154.77929663 -154.19995117 144.39868164 C-153.96442421 143.66101946 -153.72889724 142.92335728 -153.48623309 142.16334169 C-152.30246695 138.45746897 -151.11718078 134.75208466 -149.9310137 131.04697978 C-147.62059964 123.82950162 -145.31814566 116.60949089 -143.02006531 109.38807678 C-142.68670869 108.34065885 -142.68670869 108.34065885 -142.3466176 107.27208097 C-139.09955444 97.06327701 -135.90072373 86.84027197 -132.73982239 76.60447693 C-132.54178518 75.96362302 -132.34374797 75.32276911 -132.13970964 74.66249539 C-130.10679459 68.08299839 -128.08193333 61.50113515 -126.0700531 54.91517639 C-115.46376545 20.32261738 -115.46376545 20.32261738 -109.62452698 16.31965637 C-99.91299396 11.87060617 -88.03725148 10.88992186 -77.56640625 9.01953125 C-75.84349422 8.70997197 -74.12058887 8.40037551 -72.39768982 8.09074402 C-68.8053136 7.44642568 -65.21229846 6.80580747 -61.61889648 6.16723633 C-57.04711142 5.35402032 -52.4780261 4.52657225 -47.90942478 3.69568348 C-44.35798208 3.05233263 -40.80477162 2.41919437 -37.25102043 1.78873253 C-35.56690411 1.48824268 -33.88343248 1.18411294 -32.2006855 0.87604713 C-7.8348335 -3.5737837 -7.8348335 -3.5737837 0 0 Z M-30.45922852 34.38476562 C-31.72046036 34.6049939 -32.9816922 34.82522217 -34.28114319 35.05212402 C-35.66790069 35.29514806 -37.05465497 35.53819049 -38.44140625 35.78125 C-39.85243971 36.02794642 -41.26348622 36.27456824 -42.67454529 36.52111816 C-46.39501827 37.17139239 -50.11531247 37.82268392 -53.83557129 38.47418213 C-58.29577196 39.25504424 -62.756192 40.03465212 -67.21657562 40.81446838 C-73.99871928 42.00034748 -80.78060446 43.18770292 -87.5625 44.375 C-101.97277933 86.40890459 -116.10382402 128.53567433 -130.19656372 170.67693806 C-134.31413447 182.98879518 -138.43762582 195.29860741 -142.57519531 207.60375977 C-146.22394636 218.45516823 -149.86229148 229.30999699 -153.48775482 240.16920918 C-155.39698932 245.88675394 -157.31132119 251.60247283 -159.23815918 257.31411171 C-161.03731829 262.64790199 -162.8224759 267.9861675 -164.59672165 273.32829475 C-165.25023277 275.28767011 -165.90891603 277.24532885 -166.57304764 279.20112991 C-167.47581597 281.86218918 -168.3600495 284.52870537 -169.23974609 287.19746399 C-169.50838848 287.97494486 -169.77703087 288.75242572 -170.05381393 289.55346662 C-171.39841858 293.59877214 -171.39841858 293.59877214 -170.8565979 297.72496319 C-168.89600666 300.22481093 -166.71207748 302.40874502 -164.4375 304.625 C-163.07238281 305.96304688 -163.07238281 305.96304688 -161.6796875 307.328125 C-160.98101562 308.00359375 -160.28234375 308.6790625 -159.5625 309.375 C-155.09724795 305.20186725 -151.58322269 300.56357879 -148 295.625 C-147.07973022 294.36635132 -147.07973022 294.36635132 -146.14086914 293.08227539 C-141.71012253 287.00394321 -137.35230361 280.87577665 -133.03076172 274.71948242 C-127.8269135 267.30791494 -122.51696097 259.97438524 -117.20361328 252.64111328 C-114.48601827 248.888552 -111.77455527 245.13156581 -109.0625 241.375 C-107.97919638 239.87497854 -106.89586304 238.37497854 -105.8125 236.875 C-105.27625 236.1325 -104.74 235.39 -104.1875 234.625 C-47.3125 155.875 -47.3125 155.875 -45.68652344 153.6237793 C-44.60627882 152.12796853 -43.52619993 150.63203807 -42.44628906 149.13598633 C-39.13053498 144.5430566 -35.80919367 139.95425524 -32.48095703 135.37036133 C-31.37758025 133.84413647 -30.27949651 132.31406959 -29.18701172 130.7800293 C-26.41441557 126.88840412 -23.60096488 123.09684457 -20.49755859 119.46142578 C-16.68437137 114.29806045 -15.07560703 110.90724733 -15.73413086 104.43334961 C-15.82492243 103.45950144 -15.82492243 103.45950144 -15.91754818 102.46597958 C-16.11228293 100.43301293 -16.33588235 98.4046323 -16.5625 96.375 C-16.74826096 94.51296432 -16.74826096 94.51296432 -16.93777466 92.61331177 C-17.32954953 88.78186713 -17.75609021 84.95563694 -18.19140625 81.12890625 C-18.34721055 79.73790192 -18.50271696 78.34686419 -18.65794373 76.95579529 C-19.06105002 73.35040268 -19.4681133 69.74546831 -19.87609863 66.140625 C-20.29421287 62.43972955 -20.70845035 58.73840025 -21.12304688 55.03710938 C-21.93247613 47.81598438 -22.74610022 40.59534062 -23.5625 33.375 C-25.85622082 33.375 -28.21425729 33.99200724 -30.45922852 34.38476562 Z M7.328125 134.96484375 C6.78671875 135.73957031 6.2453125 136.51429688 5.6875 137.3125 C4.69556641 138.68728516 4.69556641 138.68728516 3.68359375 140.08984375 C2.94238281 141.17394531 2.20117188 142.25804687 1.4375 143.375 C0.53505005 144.64890869 -0.37005022 145.92094267 -1.27734375 147.19140625 C-3.31800359 150.05726026 -5.34340574 152.9331342 -7.359375 155.81640625 C-10.53187507 160.34508215 -13.75756697 164.83371549 -17 169.3125 C-17.53971436 170.05822266 -18.07942871 170.80394531 -18.63549805 171.57226562 C-19.73054572 173.08465265 -20.82584219 174.59685957 -21.92138672 176.10888672 C-24.63898173 179.861448 -27.35044473 183.61843419 -30.0625 187.375 C-31.14580362 188.87502146 -32.22913696 190.37502146 -33.3125 191.875 C-33.84875 192.6175 -34.385 193.36 -34.9375 194.125 C-104.8125 290.875 -104.8125 290.875 -106.43896484 293.12695312 C-107.51751053 294.62037398 -108.59596173 296.11386308 -109.67431641 297.60742188 C-112.4551124 301.45866036 -115.23775899 305.30854133 -118.0234375 309.15625 C-123.5953093 316.85559249 -129.15962978 324.55557328 -134.5625 332.375 C-132.9777642 336.23828627 -130.50293113 338.66376923 -127.5546875 341.578125 C-126.82646286 342.3021048 -126.82646286 342.3021048 -126.08352661 343.04071045 C-124.53950134 344.57358562 -122.98865176 346.09934004 -121.4375 347.625 C-120.38625991 348.66620361 -119.33547343 349.70786541 -118.28515625 350.75 C-115.71616996 353.29699464 -113.14101839 355.83765177 -110.5625 358.375 C-107.10930939 357.11368422 -104.34414238 355.67731336 -101.41015625 353.46875 C-100.6411499 352.89503662 -99.87214355 352.32132324 -99.07983398 351.73022461 C-98.26973877 351.11800049 -97.45964355 350.50577637 -96.625 349.875 C-94.90944978 348.59425387 -93.19330027 347.31431011 -91.4765625 346.03515625 C-90.63641602 345.40754395 -89.79626953 344.77993164 -88.93066406 344.13330078 C-85.814856 341.8198936 -82.66544189 339.55729104 -79.5 337.3125 C-74.25431162 333.58511837 -69.027716 329.83242145 -63.8125 326.0625 C-63.05445068 325.51456787 -62.29640137 324.96663574 -61.51538086 324.40209961 C-59.96916903 323.28427547 -58.42302687 322.16635496 -56.87695312 321.04833984 C-53.10656981 318.32236861 -49.33446306 315.59878466 -45.5625 312.875 C-44.06249141 311.79167856 -42.56249142 310.70834521 -41.0625 309.625 C-27.5625 299.875 -27.5625 299.875 -14.0625 290.125 C-12.9482666 289.32026245 -12.9482666 289.32026245 -11.81152344 288.49926758 C-10.31481299 287.41832809 -8.81806832 286.33743599 -7.32128906 285.2565918 C-3.52067363 282.5120246 0.27930298 279.76658034 4.078125 277.01953125 C11.41083833 271.71817769 18.75111844 266.42844563 26.11914062 261.17626953 C33.14314895 256.1651413 40.13128507 251.10430529 47.12304688 246.04833984 C50.1477155 243.86151719 53.17350128 241.67624397 56.19946289 239.49121094 C57.68578259 238.41785691 59.17194917 237.34429082 60.65795898 236.27050781 C64.56729572 233.44588462 68.47911484 230.62478475 72.39453125 227.80859375 C73.20728516 227.22335938 74.02003906 226.638125 74.85742188 226.03515625 C76.40873996 224.91820723 77.96077969 223.80225953 79.51367188 222.6875 C80.21685547 222.18089844 80.92003906 221.67429687 81.64453125 221.15234375 C82.2578833 220.71140381 82.87123535 220.27046387 83.50317383 219.81616211 C84.14150146 219.34057861 84.7798291 218.86499512 85.4375 218.375 C86.34072998 217.79274658 87.24395996 217.21049316 88.17456055 216.6105957 C90.72079172 214.5545831 90.72079172 214.5545831 90.8125 211.44238281 C90.68875 210.24967773 90.565 209.05697266 90.4375 207.828125 C90.37353027 207.14623108 90.30956055 206.46433716 90.24365234 205.76177979 C90.00294018 203.29588112 89.71968331 200.83648946 89.4375 198.375 C89.21988756 196.30549223 89.00383716 194.23581982 88.7890625 192.16601562 C88.17528543 186.3548167 87.521669 180.54882851 86.85351562 174.74365234 C86.43363595 171.0913891 86.02108475 167.43834859 85.609375 163.78515625 C85.34417745 161.45568046 85.07856773 159.12625156 84.8125 156.796875 C84.68955566 155.70840271 84.56661133 154.61993042 84.43994141 153.49847412 C84.32312012 152.48931946 84.20629883 151.48016479 84.0859375 150.44042969 C83.98458496 149.5560321 83.88323242 148.67163452 83.77880859 147.76043701 C83.46613029 145.57509973 83.01829451 143.50290826 82.4375 141.375 C68.81338031 139.35651443 55.17986288 137.557622 41.49389648 136.01245117 C38.58055444 135.68246579 35.66822564 135.34433733 32.75585938 135.00585938 C30.87245118 134.79118056 28.98898954 134.57696995 27.10546875 134.36328125 C26.25019089 134.26332352 25.39491302 134.16336578 24.51371765 134.06037903 C15.48342924 132.55791342 15.48342924 132.55791342 7.328125 134.96484375 Z M106.1875 243.0859375 C105.03882446 243.95617554 105.03882446 243.95617554 103.86694336 244.84399414 C103.06522705 245.47297607 102.26351074 246.10195801 101.4375 246.75 C99.73110564 248.04901413 98.02407046 249.34718689 96.31640625 250.64453125 C95.48254395 251.28471191 94.64868164 251.92489258 93.78955078 252.58447266 C90.69849017 254.93758025 87.54893502 257.19815432 84.375 259.4375 C83.25356883 260.23390008 82.13248091 261.0307837 81.01171875 261.828125 C80.4398584 262.23482422 79.86799805 262.64152344 79.27880859 263.06054688 C75.73788576 265.58830192 72.21334303 268.13877502 68.6875 270.6875 C67.92945068 271.23543213 67.17140137 271.78336426 66.39038086 272.34790039 C64.84416903 273.46572453 63.29802687 274.58364504 61.75195312 275.70166016 C57.98156981 278.42763139 54.20946306 281.15121534 50.4375 283.875 C48.93749141 284.95832144 47.43749142 286.04165479 45.9375 287.125 C42.9375 289.29166667 39.9375 291.45833333 36.9375 293.625 C36.19467773 294.1614917 35.45185547 294.6979834 34.68652344 295.25073242 C33.18981299 296.33167191 31.69306832 297.41256401 30.19628906 298.4934082 C26.39567363 301.2379754 22.59569702 303.98341966 18.796875 306.73046875 C11.46416167 312.03182231 4.12388156 317.32155437 -3.24414062 322.57373047 C-10.26814895 327.5848587 -17.25628507 332.64569471 -24.24804688 337.70166016 C-28.01843019 340.42763139 -31.79053694 343.15121534 -35.5625 345.875 C-37.06250859 346.95832144 -38.56250858 348.04165479 -40.0625 349.125 C-49.0625 355.625 -49.0625 355.625 -51.31567383 357.25195312 C-52.80552434 358.32818112 -54.29494982 359.40499776 -55.78393555 360.48242188 C-59.68582219 363.30460838 -63.59603666 366.11416392 -67.51953125 368.90625 C-68.33228516 369.48697266 -69.14503906 370.06769531 -69.98242188 370.66601562 C-71.53178258 371.77270184 -73.08371077 372.87580597 -74.63867188 373.97460938 C-75.34185547 374.47798828 -76.04503906 374.98136719 -76.76953125 375.5 C-77.3828833 375.93570313 -77.99623535 376.37140625 -78.62817383 376.8203125 C-81.10731971 378.8128912 -83.31344084 381.12594084 -85.5625 383.375 C-81.6025 387.335 -77.6425 391.295 -73.5625 395.375 C-66.33747716 393.45568134 -59.22849466 391.35957154 -52.14183044 388.9838562 C-51.15379034 388.6553143 -50.16575023 388.32677241 -49.14776951 387.98827469 C-45.86896267 386.89720333 -42.59159152 385.80188454 -39.31420898 384.70654297 C-36.95141386 383.91930257 -34.58853212 383.13232209 -32.22557068 382.34558105 C-26.49519572 380.43689971 -20.76575056 378.52545193 -15.03673803 376.61268674 C-8.36307066 374.38465672 -1.68835115 372.15978683 4.98640763 369.93502904 C16.89060668 365.9671292 28.79383999 361.99634022 40.6965332 358.02392578 C52.24756377 354.16887796 63.79929783 350.31594774 75.35180664 346.46533203 C76.06466481 346.22772596 76.77752299 345.99011989 77.51198293 345.74531363 C78.22361137 345.5081176 78.93523982 345.27092157 79.66843277 345.02653778 C92.83015091 340.63952812 105.99121103 336.25054743 119.15196391 331.86064299 C123.80623731 330.30821243 128.46070623 328.75636897 133.11523628 327.2047081 C139.36937719 325.11974381 145.62295844 323.03310707 151.87616539 320.94534302 C154.17627979 320.17766136 156.47656564 319.41049318 158.77703094 318.64386368 C161.90504654 317.60135437 165.03244469 316.55701405 168.15968323 315.51217651 C169.08018182 315.20585985 170.00068041 314.89954319 170.9490729 314.5839442 C171.78228625 314.3051316 172.61549959 314.02631901 173.47396183 313.73905754 C174.19630262 313.49804247 174.91864342 313.25702739 175.66287333 313.00870883 C177.50756517 312.39012335 177.50756517 312.39012335 179.4375 311.375 C180.12334738 309.34294438 180.12334738 309.34294438 180.58251953 306.84277344 C180.78257599 305.87797058 180.98263245 304.91316772 181.18875122 303.91912842 C181.50137405 302.34267548 181.50137405 302.34267548 181.8203125 300.734375 C182.03944305 299.66004211 182.25857361 298.58570923 182.48434448 297.4788208 C182.94727743 295.19976312 183.40598529 292.91984386 183.86083984 290.63916016 C184.55714594 287.151815 185.26768456 283.66760393 185.98046875 280.18359375 C186.4279349 277.97152625 186.87457639 275.75929175 187.3203125 273.546875 C187.53277618 272.5040033 187.74523987 271.46113159 187.96414185 270.38665771 C188.15789398 269.40924622 188.35164612 268.43183472 188.55126953 267.42480469 C188.72288605 266.56844421 188.89450256 265.71208374 189.07131958 264.82977295 C189.44747145 262.30815415 189.5020487 259.92060155 189.4375 257.375 C185.2293272 255.90686019 181.04740743 254.75376022 176.70117188 253.77099609 C176.05644424 253.62440048 175.41171661 253.47780487 174.74745178 253.32676697 C172.63444768 252.84736119 170.52043546 252.37260433 168.40625 251.8984375 C166.92702313 251.56507886 165.44781608 251.23163222 163.96862793 250.89810181 C160.8759037 250.20164526 157.78261309 249.50776954 154.68896484 248.81542969 C150.73332778 247.92973905 146.77972273 247.03531179 142.82656097 246.13864708 C139.77513752 245.44795417 136.72242586 244.76309713 133.66932678 244.07985306 C132.21128496 243.75259816 130.75370565 243.42327524 129.2966156 243.09180832 C127.25700055 242.62849889 125.21571495 242.17339159 123.17382812 241.72021484 C122.01500122 241.45977386 120.85617432 241.19933289 119.66223145 240.93099976 C114.25844641 239.99929328 110.61326985 239.65997777 106.1875 243.0859375 Z M-193.62548828 327.2109375 C-194.45290527 328.04882812 -195.28032227 328.88671875 -196.1328125 329.75 C-197.02871094 330.65234375 -197.92460937 331.5546875 -198.84765625 332.484375 C-199.79437899 333.4478104 -200.74099216 334.41135348 -201.6875 335.375 C-202.64146802 336.33899617 -203.59588952 337.30254381 -204.55078125 338.265625 C-206.89253175 340.63102955 -209.22950503 343.00096452 -211.5625 345.375 C-210.16021936 348.54598328 -208.50644221 350.67870777 -206.05709839 353.12091064 C-205.33073181 353.85002655 -204.60436523 354.57914246 -203.85598755 355.33035278 C-203.05901459 356.12013519 -202.26204163 356.9099176 -201.44091797 357.72363281 C-200.60181885 358.56302399 -199.76271973 359.40241516 -198.89819336 360.26724243 C-196.60032233 362.56395972 -194.29807743 364.85618096 -191.99381018 367.1464777 C-189.58524213 369.54253468 -187.18234484 371.94426488 -184.77883911 374.34539795 C-180.22841044 378.88961297 -175.67290801 383.4287061 -171.11555874 387.96597934 C-165.92665889 393.13251666 -160.74344375 398.30474101 -155.56069732 403.47744989 C-144.90094297 414.11630483 -134.23407395 424.74800007 -123.5625 435.375 C-120.13767293 433.75723883 -117.90559478 431.95156756 -115.234375 429.2421875 C-114.43515625 428.43652344 -113.6359375 427.63085938 -112.8125 426.80078125 C-111.9875 425.95902344 -111.1625 425.11726563 -110.3125 424.25 C-109.47203125 423.40050781 -108.6315625 422.55101562 -107.765625 421.67578125 C-105.69334317 419.57995077 -103.62587607 417.47959287 -101.5625 415.375 C-102.96354289 412.21022451 -104.61438579 410.07206859 -107.05444336 407.62908936 C-107.77791962 406.89997345 -108.50139587 406.17085754 -109.24679565 405.41964722 C-110.04062653 404.62986481 -110.8344574 403.8400824 -111.65234375 403.02636719 C-112.48823029 402.18697601 -113.32411682 401.34758484 -114.18533325 400.48275757 C-116.47491256 398.1858882 -118.7689303 395.89357284 -121.06532669 393.6035223 C-123.46703879 391.20687589 -125.863865 388.80535126 -128.26147461 386.40460205 C-132.28628487 382.37615522 -136.31528977 378.35193973 -140.34667969 374.33007812 C-145.01179608 369.67586046 -149.66964377 365.01446149 -154.32380962 360.34929538 C-158.31847516 356.34556579 -162.3170101 352.34573197 -166.31882954 348.3491528 C-168.70974083 345.96136417 -171.0992692 343.57223377 -173.48532104 341.17958832 C-176.14297081 338.51688734 -178.80689888 335.86063528 -181.47265625 333.20605469 C-182.26648712 332.40817535 -183.06031799 331.61029602 -183.87820435 330.78823853 C-184.6016806 330.07040192 -185.32515686 329.35256531 -186.07055664 328.61297607 C-187.01518517 327.66947863 -187.01518517 327.66947863 -187.97889709 326.70692062 C-190.50834114 324.57948155 -191.19830093 325.05088438 -193.62548828 327.2109375 Z M-236.5625 370.375 C-249.22693772 383.61509398 -254.38986531 399.15190613 -254.1496582 417.22167969 C-253.45331358 434.30810586 -246.3512451 449.91196529 -233.72265625 461.63671875 C-219.22532226 473.30274701 -202.24882904 479.10959594 -183.5625 477.375 C-169.38816245 475.35969134 -157.0592273 470.38350742 -146.5625 460.375 C-147.96354289 457.21022451 -149.61438579 455.07206859 -152.05444336 452.62908936 C-152.77791962 451.89997345 -153.50139587 451.17085754 -154.24679565 450.41964722 C-155.04062653 449.62986481 -155.8344574 448.8400824 -156.65234375 448.02636719 C-157.48823029 447.18697601 -158.32411682 446.34758484 -159.18533325 445.48275757 C-161.47491256 443.1858882 -163.7689303 440.89357284 -166.06532669 438.6035223 C-168.46703879 436.20687589 -170.863865 433.80535126 -173.26147461 431.40460205 C-177.28628487 427.37615522 -181.31528977 423.35193973 -185.34667969 419.33007812 C-190.01179608 414.67586046 -194.66964377 410.01446149 -199.32380962 405.34929538 C-203.31847516 401.34556579 -207.3170101 397.34573197 -211.31882954 393.3491528 C-213.70974083 390.96136417 -216.0992692 388.57223377 -218.48532104 386.17958832 C-221.14297081 383.51688734 -223.80689888 380.86063528 -226.47265625 378.20605469 C-227.26648712 377.40817535 -228.06031799 376.61029602 -228.87820435 375.78823853 C-229.6016806 375.07040192 -230.32515686 374.35256531 -231.07055664 373.61297607 C-232.01518517 372.66947863 -232.01518517 372.66947863 -232.97889709 371.70692062 C-234.47272489 370.16044267 -234.47272489 370.16044267 -236.5625 370.375 Z " transform="translate(286.5625,1.625)" style="fill: #000000;"/></svg>