<svg width="24" height="24" viewBox="0 0 24 24" fill="none" xmlns="http://www.w3.org/2000/svg">
<path d="M2.46 10.8H5.88C5.76 10.04 5.53 9.33 5.19 8.67C4.85 8.01 4.42 7.42 3.9 6.9C3.54 7.48 3.235 8.095 2.985 8.745C2.735 9.395 2.56 10.08 2.46 10.8ZM18.12 10.8H21.54C21.44 10.08 21.265 9.395 21.015 8.745C20.765 8.095 20.46 7.48 20.1 6.9C19.58 7.42 19.15 8.01 18.81 8.67C18.47 9.33 18.24 10.04 18.12 10.8ZM3.9 17.1C4.42 16.58 4.85 15.99 5.19 15.33C5.53 14.67 5.76 13.96 5.88 13.2H2.46C2.56 13.92 2.735 14.605 2.985 15.255C3.235 15.905 3.54 16.52 3.9 17.1ZM20.1 17.1C20.46 16.52 20.765 15.905 21.015 15.255C21.265 14.605 21.44 13.92 21.54 13.2H18.12C18.24 13.96 18.47 14.67 18.81 15.33C19.15 15.99 19.58 16.58 20.1 17.1ZM8.34 10.8H10.8V2.46C9.74 2.62 8.755 2.915 7.845 3.345C6.935 3.775 6.12 4.34 5.4 5.04C6.18 5.8 6.825 6.665 7.335 7.635C7.845 8.605 8.18 9.66 8.34 10.8ZM13.2 10.8H15.66C15.82 9.66 16.155 8.605 16.665 7.635C17.175 6.665 17.82 5.8 18.6 5.04C17.88 4.34 17.065 3.775 16.155 3.345C15.245 2.915 14.26 2.62 13.2 2.46V10.8ZM10.8 21.54V13.2H8.34C8.18 14.34 7.845 15.395 7.335 16.365C6.825 17.335 6.18 18.2 5.4 18.96C6.12 19.66 6.935 20.225 7.845 20.655C8.755 21.085 9.74 21.38 10.8 21.54ZM13.2 21.54C14.26 21.38 15.245 21.085 16.155 20.655C17.065 20.225 17.88 19.66 18.6 18.96C17.82 18.2 17.175 17.335 16.665 16.365C16.155 15.395 15.82 14.34 15.66 13.2H13.2V21.54ZM12 24C10.34 24 8.78 23.685 7.32 23.055C5.86 22.425 4.59 21.57 3.51 20.49C2.43 19.41 1.575 18.14 0.945 16.68C0.315 15.22 0 13.66 0 12C0 10.34 0.315 8.78 0.945 7.32C1.575 5.86 2.43 4.59 3.51 3.51C4.59 2.43 5.86 1.575 7.32 0.945C8.78 0.315 10.34 0 12 0C13.66 0 15.22 0.315 16.68 0.945C18.14 1.575 19.41 2.43 20.49 3.51C21.57 4.59 22.425 5.86 23.055 7.32C23.685 8.78 24 10.34 24 12C24 13.66 23.685 15.22 23.055 16.68C22.425 18.14 21.57 19.41 20.49 20.49C19.41 21.57 18.14 22.425 16.68 23.055C15.22 23.685 13.66 24 12 24Z" fill="#1D1B20"/>
</svg>
