<svg width="24" height="24" viewBox="0 0 24 24" fill="none" xmlns="http://www.w3.org/2000/svg">
<g clip-path="url(#clip0_127_2656)">
<path d="M10.02 21.36L10.38 19.68C10.44 19.42 10.565 19.205 10.755 19.035C10.945 18.865 11.18 18.76 11.46 18.72L15.18 18.42C15.44 18.38 15.68 18.43 15.9 18.57C16.12 18.71 16.28 18.9 16.38 19.14L16.86 20.28C17.64 19.82 18.34 19.265 18.96 18.615C19.58 17.965 20.1 17.24 20.52 16.44L20.16 16.26C19.94 16.1 19.78 15.905 19.68 15.675C19.58 15.445 19.56 15.2 19.62 14.94L20.46 11.28C20.52 11.04 20.645 10.84 20.835 10.68C21.025 10.52 21.24 10.42 21.48 10.38C21.38 9.88 21.255 9.395 21.105 8.925C20.955 8.455 20.76 8 20.52 7.56C20.34 7.66 20.145 7.705 19.935 7.695C19.725 7.685 19.54 7.62 19.38 7.5L16.2 5.58C15.98 5.44 15.82 5.25 15.72 5.01C15.62 4.77 15.6 4.52 15.66 4.26L15.9 3.24C15.28 2.96 14.645 2.75 13.995 2.61C13.345 2.47 12.68 2.4 12 2.4C11.72 2.4 11.43 2.415 11.13 2.445C10.83 2.475 10.54 2.52 10.26 2.58L11.16 4.62C11.26 4.86 11.285 5.11 11.235 5.37C11.185 5.63 11.06 5.84 10.86 6L8.04 8.46C7.84 8.64 7.605 8.74 7.335 8.76C7.065 8.78 6.82 8.72 6.6 8.58L3.84 6.9C3.38 7.66 3.025 8.475 2.775 9.345C2.525 10.215 2.4 11.1 2.4 12C2.4 12.32 2.44 12.84 2.52 13.56L5.16 13.32C5.44 13.28 5.695 13.325 5.925 13.455C6.155 13.585 6.32 13.78 6.42 14.04L7.86 17.46C7.96 17.7 7.985 17.95 7.935 18.21C7.885 18.47 7.76 18.68 7.56 18.84L6.42 19.8C6.96 20.2 7.535 20.53 8.145 20.79C8.755 21.05 9.38 21.24 10.02 21.36ZM12.18 16.2C11.92 16.24 11.68 16.19 11.46 16.05C11.24 15.91 11.08 15.72 10.98 15.48L9.36 11.76C9.26 11.52 9.245 11.27 9.315 11.01C9.385 10.75 9.52 10.54 9.72 10.38L12.78 7.8C12.96 7.62 13.18 7.52 13.44 7.5C13.7 7.48 13.94 7.54 14.16 7.68L17.52 9.66C17.74 9.8 17.91 9.99 18.03 10.23C18.15 10.47 18.18 10.72 18.12 10.98L17.16 14.88C17.1 15.14 16.98 15.355 16.8 15.525C16.62 15.695 16.4 15.8 16.14 15.84L12.18 16.2ZM12 24C10.34 24 8.78 23.685 7.32 23.055C5.86 22.425 4.59 21.57 3.51 20.49C2.43 19.41 1.575 18.14 0.945 16.68C0.315 15.22 0 13.66 0 12C0 10.34 0.315 8.78 0.945 7.32C1.575 5.86 2.43 4.59 3.51 3.51C4.59 2.43 5.86 1.575 7.32 0.945C8.78 0.315 10.34 0 12 0C13.66 0 15.22 0.315 16.68 0.945C18.14 1.575 19.41 2.43 20.49 3.51C21.57 4.59 22.425 5.86 23.055 7.32C23.685 8.78 24 10.34 24 12C24 13.66 23.685 15.22 23.055 16.68C22.425 18.14 21.57 19.41 20.49 20.49C19.41 21.57 18.14 22.425 16.68 23.055C15.22 23.685 13.66 24 12 24Z" fill="#1D1B20"/>
</g>
<defs>
<clipPath id="clip0_127_2656">
<rect width="24" height="24" fill="white"/>
</clipPath>
</defs>
</svg>
