<svg width="24" height="24" viewBox="0 0 24 24" fill="none" xmlns="http://www.w3.org/2000/svg">
<g id="table tennis 3" clip-path="url(#clip0_199_1329)">
<path id="Vector" d="M13.7143 7.26609e-06C11.9004 7.26609e-06 10.1563 0.488083 8.62062 1.40923C8.63996 1.43155 8.66675 1.45089 8.6861 1.4747C7.85128 0.568457 6.65931 0 5.33341 0C2.81109 0 0.761981 2.0491 0.761981 4.57143C0.761981 6.55653 2.03878 8.24404 3.8096 8.87657V14.4229L1.11615 17.1163C0.395924 17.8365 7.62939e-05 18.7919 7.62939e-05 19.8098C7.62939e-05 20.8276 0.395924 21.783 1.11615 22.5032C2.60126 23.9883 5.01634 23.9883 6.5032 22.5032L9.20408 19.8023L13.7191 19.8098C19.1774 19.8098 23.6239 15.3679 23.6239 9.905C23.6239 4.44214 19.182 0.000239781 13.7191 0.000239781L13.7143 7.26609e-06ZM2.28576 4.57144C2.28576 2.89136 3.6533 1.52382 5.33338 1.52382C7.01346 1.52382 8.381 2.89136 8.381 4.57144C8.381 6.25151 7.01346 7.61905 5.33338 7.61905C3.6533 7.61905 2.28576 6.25151 2.28576 4.57144ZM8.57147 18.2811L5.42416 21.4285C4.9941 21.8585 4.41822 22.0996 3.80957 22.0996C3.19944 22.0996 2.62504 21.863 2.19498 21.4285C1.76492 20.9984 1.52386 20.4225 1.52386 19.8139C1.52386 19.2037 1.76046 18.6293 2.19498 18.1993L5.33338 15.0609V9.46431L14.1608 18.2917L8.57147 18.2843V18.2811ZM16.4568 17.8213L16.0074 17.9776L6.89426 8.86445C8.64725 8.22456 9.90767 6.54898 9.90767 4.57416C9.90767 3.89561 9.75141 3.25573 9.48504 2.67683C10.7648 1.92235 12.2127 1.52654 13.717 1.52654C18.3376 1.52654 22.098 5.28696 22.098 9.9075C22.098 13.473 19.8316 16.6545 16.4595 17.8199L16.4568 17.8213Z" fill="#1D1B20"/>
</g>
<defs>
<clipPath id="clip0_199_1329">
<rect width="24" height="23.6191" fill="white"/>
</clipPath>
</defs>
</svg>
